<?xml version="1.0" encoding="UTF-8" standalone="no"?>
<!DOCTYPE svg PUBLIC "-//W3C//DTD SVG 1.1//EN" "http://www.w3.org/Graphics/SVG/1.1/DTD/svg11.dtd">
<svg width="100%" height="100%" viewBox="0 0 1000 500" version="1.1" xmlns="http://www.w3.org/2000/svg" xmlns:xlink="http://www.w3.org/1999/xlink" xml:space="preserve" xmlns:serif="http://www.serif.com/" style="fill-rule:evenodd;clip-rule:evenodd;stroke-linejoin:round;stroke-miterlimit:2;">
    <g id="cow-svgrepo-com--1-.svg" serif:id="cow-svgrepo-com (1).svg" transform="matrix(0.80843,0,0,0.80843,207,244.783)">
        <g transform="matrix(1,0,0,1,-256,-256)">
            <clipPath id="_clip1">
                <rect x="0" y="0" width="512.001" height="512.001"/>
            </clipPath>
            <g clip-path="url(#_clip1)">
                <g>
                    <g>
                        <path d="M490.638,118.806C482.774,107.241 468.585,101.507 450.682,102.668C434.818,103.695 417.448,110.134 401.774,120.799C395.463,125.09 389.649,129.937 384.518,135.14C395.043,112.291 399.647,89.273 397.869,67.701C396.011,45.176 387.158,24.943 373.578,12.191C359.966,-0.592 343.353,-3.512 331.254,4.753C314.34,16.308 315.481,32.842 316.586,48.833C317.642,64.132 318.823,81.277 308.205,103.067C292.414,99.268 274.749,97.338 255.538,97.338C236.641,97.338 219.256,99.207 203.707,102.883C193.179,81.175 194.359,64.082 195.413,48.828C196.518,32.84 197.661,16.307 180.745,4.75C168.478,-3.623 152.276,-0.789 138.468,12.151C124.908,24.859 116.045,45.033 114.152,67.503C112.329,89.13 116.926,112.225 127.485,135.146C122.353,129.943 116.541,125.092 110.231,120.799C94.555,110.134 77.185,103.694 61.321,102.667C43.419,101.501 29.231,107.239 21.367,118.802C13.5,130.362 13.38,145.663 21.029,161.888C27.81,176.271 40.176,190.062 55.847,200.719C70.827,210.918 87.014,217.123 101.98,218.635C98.428,241.088 97.925,266.475 100.447,295.801C102.691,321.878 107.934,346.861 116.027,370.131C113.374,378.981 112.031,388.996 112.031,399.967C112.031,461.743 153.914,512.001 205.395,512.001C223.636,512.001 240.961,505.878 256.002,494.2C271.043,505.879 288.368,512.001 306.609,512.001C358.089,512.001 399.973,461.743 399.973,399.967C399.973,389.084 398.656,379.16 396.056,370.405C404.106,347.096 409.334,322.022 411.59,295.8C414.067,267.001 413.489,241.137 409.902,218.668C424.864,217.191 441.089,210.973 456.153,200.723C471.829,190.063 484.197,176.272 490.977,161.889C498.624,145.665 498.503,130.363 490.638,118.806ZM337.733,47.374C336.608,31.094 337.001,26.5 343.211,22.257C347.255,19.495 354.093,22.969 359.068,27.644C368.725,36.712 375.334,52.339 376.744,69.443C378.309,88.429 373.771,109.068 363.606,129.753C353.468,121.372 341.776,114.573 328.631,109.436C340.25,83.857 338.817,63.079 337.733,47.374ZM135.274,69.284C136.711,52.227 143.324,36.651 152.962,27.619C157.931,22.962 164.752,19.501 168.791,22.255C175.001,26.498 175.393,31.09 174.267,47.366C173.185,63.013 171.757,83.708 183.252,109.17C170.061,114.265 158.345,121.027 148.212,129.372C138.15,108.756 133.68,88.195 135.274,69.284ZM106.38,197.723C94.46,197.052 80.54,191.89 67.769,183.194C55.362,174.758 45.313,163.697 40.199,152.849C35.943,143.82 35.465,135.758 38.89,130.724C42.312,125.691 49.986,123.173 59.949,123.818C71.915,124.593 85.895,129.879 98.305,138.323C107.829,144.803 115.862,152.697 121.438,160.96C115.078,171.821 110.037,184.137 106.38,197.723ZM390.469,293.982C388.97,311.395 386.077,328.241 381.842,344.312C375.869,337.596 368.457,332.146 359.627,328.031C354.321,325.557 348.016,327.856 345.544,333.161C343.072,338.467 345.368,344.772 350.675,347.244C362.653,352.826 370.568,361.505 374.876,373.786C377.463,381.138 378.775,389.947 378.775,399.967C378.775,450.055 346.402,490.804 306.608,490.804C290.869,490.804 275.891,484.491 263.293,472.548C259.205,468.672 252.798,468.672 248.709,472.548C236.111,484.492 221.133,490.804 205.394,490.804C165.602,490.804 133.227,450.055 133.227,399.967C133.227,389.962 134.544,381.147 137.131,373.762C137.209,373.556 137.291,373.352 137.356,373.14C145.731,350.205 167.364,339.513 205.393,339.513C213.806,339.513 221.536,340.063 228.373,341.147C246.705,344.048 265.295,344.048 283.632,341.147C287.958,340.46 292.663,339.984 297.616,339.733C303.462,339.436 307.961,334.456 307.663,328.61C307.365,322.764 302.368,318.259 296.541,318.563C290.838,318.852 285.376,319.408 280.314,320.211C264.179,322.763 247.818,322.763 231.69,320.211C223.762,318.953 214.915,318.315 205.393,318.315C183.817,318.315 166.519,321.471 152.513,327.964C143.664,332.067 136.234,337.507 130.241,344.218C125.967,328.157 123.057,311.342 121.564,293.983C118.775,261.564 119.96,233.441 125.091,210.381C128.814,193.545 134.743,178.909 142.732,166.847C145.828,162.137 149.309,157.734 153.103,153.737C165.382,140.706 181.587,131.183 201.264,125.431C216.921,120.855 235.181,118.535 255.537,118.535C276.184,118.535 294.702,120.922 310.573,125.629C330.18,131.448 346.367,141.03 358.714,154.139C360.184,155.687 361.607,157.301 362.948,158.935C365.126,161.589 367.184,164.382 369.085,167.263C377.016,179.203 382.963,193.722 386.755,210.412C391.998,233.547 393.248,261.664 390.469,293.982ZM471.801,152.851C466.687,163.699 456.639,174.758 444.228,183.198C431.333,191.975 417.345,197.147 405.421,197.751C401.72,184.271 396.667,172.054 390.338,161.297C395.931,152.901 404.042,144.89 413.694,138.327C426.105,129.883 440.084,124.597 452.05,123.822C462.015,123.18 469.687,125.695 473.11,130.73C476.537,135.758 476.059,143.822 471.801,152.851Z" style="fill-rule:nonzero;"/>
                    </g>
                </g>
                <g>
                    <g>
                        <path d="M328.712,319.612C327.608,319.472 326.494,319.345 325.373,319.228C319.547,318.619 314.341,322.852 313.737,328.674C313.131,334.495 317.361,339.705 323.182,340.31C324.143,340.41 325.1,340.52 326.047,340.641C326.5,340.698 326.949,340.726 327.393,340.726C332.653,340.726 337.217,336.813 337.894,331.458C338.629,325.651 334.518,320.348 328.712,319.612Z" style="fill-rule:nonzero;"/>
                    </g>
                </g>
                <g>
                    <g>
                        <path d="M200.806,365.846C182.484,365.846 167.577,380.752 167.577,399.074C167.577,417.396 182.483,432.303 200.806,432.303C219.129,432.303 234.033,417.397 234.033,399.074C234.033,380.751 219.127,365.846 200.806,365.846ZM200.806,411.105C194.172,411.105 188.775,405.708 188.775,399.074C188.775,392.44 194.172,387.044 200.806,387.044C207.44,387.044 212.836,392.441 212.836,399.074C212.836,405.708 207.439,411.105 200.806,411.105Z" style="fill-rule:nonzero;"/>
                    </g>
                </g>
                <g>
                    <g>
                        <path d="M311.196,365.846C292.874,365.846 277.967,380.752 277.967,399.074C277.967,417.396 292.873,432.303 311.196,432.303C329.519,432.303 344.423,417.397 344.423,399.074C344.423,380.751 329.518,365.846 311.196,365.846ZM311.196,411.105C304.562,411.105 299.165,405.708 299.165,399.074C299.165,392.44 304.563,387.044 311.196,387.044C317.83,387.044 323.226,392.441 323.226,399.074C323.225,405.708 317.83,411.105 311.196,411.105Z" style="fill-rule:nonzero;"/>
                    </g>
                </g>
                <g>
                    <g>
                        <path d="M175.96,233.93C170.106,233.93 165.361,238.675 165.361,244.529L165.361,251.003C165.361,256.857 170.106,261.602 175.96,261.602C181.814,261.602 186.559,256.857 186.559,251.003L186.559,244.529C186.558,238.675 181.813,233.93 175.96,233.93Z" style="fill-rule:nonzero;"/>
                    </g>
                </g>
                <g>
                    <g>
                        <path d="M336.041,233.93C330.188,233.93 325.442,238.675 325.442,244.529L325.442,251.003C325.442,256.857 330.188,261.602 336.041,261.602C341.894,261.602 346.64,256.857 346.64,251.003L346.64,244.529C346.64,238.675 341.895,233.93 336.041,233.93Z" style="fill-rule:nonzero;"/>
                    </g>
                </g>
            </g>
        </g>
    </g>
    <g transform="matrix(1,0,0,1,-99.7102,116.763)">
        <text x="442.899px" y="184.3px" style="font-family:'Now-Bold', 'Now';font-weight:700;font-size:125px;">COW</text>
    </g>
    <g transform="matrix(1,0,0,1,-99.7102,236.763)">
        <text x="442.899px" y="184.3px" style="font-family:'Now-Bold', 'Now';font-weight:700;font-size:125px;">HOSTING</text>
    </g>
</svg>
